<svg width="76.304" height="15.205" viewBox="0 0 20.189 4.023" xmlns="http://www.w3.org/2000/svg"><defs><path id="g" d="M-407.997 242.292h72.226v68.028h-72.226z"/><path id="f" d="M-512.146 231.097h103.386v59.538h-103.386z"/><path id="e" d="M-626.343 234.07h94.787v62.963h-94.787z"/><path id="d" d="M-516.875 192.632h75.596v48.088h-75.596z"/><path id="c" d="M-612.313 187.437h68.571v44.804h-68.571z"/><path id="b" d="M-527.913 141.88h51.685v53.846h-51.685z"/><path id="a" d="M-591.066 137.057h36.574v41.619h-36.574z"/></defs><g style="font-size:18.6667px;line-height:1.25;font-family:'Helvetica Neue';-inkscape-font-specification:'Helvetica Neue, Normal';letter-spacing:0;white-space:pre;shape-inside:url(#a);fill:#666"><path d="M-590.747 154.672v-.629q.829-.036 1.12-.31.292-.282.292-1.039v-5.432h-1.358v-.857h1.358v-.601q0-1.304.119-1.932.127-.638.41-1.085.438-.711 1.23-1.076.793-.364 1.905-.364 1.276 0 1.951.383.684.382.684 1.112 0 .464-.274.756-.273.283-.702.283-.41 0-.665-.183-.246-.191-.474-.692-.018-.046-.064-.146-.31-.711-.72-.711-.428 0-.638.456-.2.446-.2 1.376v2.424h2.296v.857h-2.26v5.432q0 .757.374 1.049.383.282 1.458.3l-.009.63q-.602-.028-1.276-.046-.665-.01-1.814-.01-.528 0-1.221.01-.684.018-1.522.045z" style="font-weight:700;font-family:Baskerville;-inkscape-font-specification:'Baskerville Bold';fill:#666" aria-label="f" transform="translate(156.3 -37.17) scale(.26458)"/></g><g style="font-size:18.6667px;line-height:1.25;font-family:'Helvetica Neue';-inkscape-font-specification:'Helvetica Neue, Normal';letter-spacing:0;white-space:pre;shape-inside:url(#b);fill:#666"><path d="M-522.163 150.855c-2.986 0-5.096 1.848-5.096 4.443 0 2.632 2.016 4.387 5.003 4.387 2.912 0 4.928-1.867 4.928-4.555 0-2.595-1.904-4.275-4.835-4.275zm-.261 6.422c-1.027 0-1.699-.691-1.699-1.755 0-1.27.859-2.24 1.998-2.24 1.026 0 1.66.672 1.66 1.736 0 1.307-.82 2.259-1.96 2.259z" style="font-family:'Futura PT Bold Italic';-inkscape-font-specification:'Futura PT Bold Italic, ';fill:#666" aria-label="o" transform="translate(141.54 -38.43) scale(.26458)"/></g><g style="font-size:18.6667px;line-height:1.25;font-family:'Helvetica Neue';-inkscape-font-specification:'Helvetica Neue, Normal';letter-spacing:0;white-space:pre;shape-inside:url(#c);fill:#666"><path d="M-605.835 195.236h-1.587l-2.221 9.763h-3.286l2.54-11.48 2.015-1.587h5.003l1.27 1.586-2.651 11.48h-3.286l2.203-9.762z" style="font-family:Commando;-inkscape-font-specification:Commando;fill:#666" aria-label="n" transform="matrix(.20867 0 0 .20867 132.855 -39.001)"/></g><g style="font-size:18.6667px;line-height:1.25;font-family:'Helvetica Neue';-inkscape-font-specification:'Helvetica Neue, Normal';letter-spacing:0;white-space:pre;shape-inside:url(#d);fill:#666"><path d="m-507.915 196.112 1.631.082h1.632q.474 0 .692.437l-.09.082q.428.028.428.255v.092h-.94v.082h.338v.173h-.164l.082.09-.082.083v.173l.428.082v.091l-.09.082v.091q.519 0 .519.684.346.045.346.255v.173l-5.077.602q-.647 0-1.03 1.631-4.539 8.841-5.423 11.266-.52.52-.857.52l-.346-.347q-.51 0-.51-.428l-.092.09h-.082q-.018-.218-.856-.774l-.265-.437q0-1.732 4.13-9.197l.692-1.632-3.19.51q-1.805 0-2.407-1.63l-.255-1.03v-.174q0-.547.684-1.03h1.121q2.698 0 9.033-.948z" style="font-family:lazer84;-inkscape-font-specification:lazer84;fill:#666" aria-label="t" transform="matrix(.23629 0 0 .23629 130.088 -46.34)"/></g><g style="font-size:18.6667px;line-height:1.25;font-family:'Helvetica Neue';-inkscape-font-specification:'Helvetica Neue, Normal';letter-spacing:0;white-space:pre;shape-inside:url(#e);fill:#666"><path d="M-620.055 242.444q.301-.647.766-.957.465-.31 1.14-.31 1.32 0 1.822.911.51.912.51 3.792v5.751h-2.187v-6.553q0-1.14-.173-1.522-.173-.383-.629-.383t-.638.392q-.182.392-.182 1.513v6.553h-2.16v-6.553q0-1.121-.183-1.513-.182-.392-.638-.392-.455 0-.629.383-.173.383-.173 1.522v6.553h-2.187v-10.208h1.941v1.057q.228-.601.73-.948.5-.355 1.12-.355.62 0 1.13.374.51.364.62.893z" style="font-weight:700;font-family:'Meslo LG L DZ for Powerline';-inkscape-font-specification:'Meslo LG L DZ for Powerline Bold';fill:#666" aria-label="m" transform="translate(176.603 -62.808) scale(.26458)"/></g><g style="font-size:18.6667px;line-height:1.25;font-family:'Helvetica Neue';-inkscape-font-specification:'Helvetica Neue, Normal';letter-spacing:0;white-space:pre;shape-inside:url(#f);fill:#666"><path d="M-502.813 248.659h-7v-2.334h-2.333v-2.333h2.333v-2.333h5.833v-1.167h2.334v8.167zm-2.333-2.334h1.166v-2.333h-5.833v2.333h3.5zm1.166-5.833h-8.166v-2.333h8.166v1.166z" style="font-family:Minecraft;-inkscape-font-specification:Minecraft;fill:#666" aria-label="a" transform="translate(137.388 -56.012) scale(.24016)"/></g><g style="font-size:18.6667px;line-height:1.25;font-family:'Helvetica Neue';-inkscape-font-specification:'Helvetica Neue, Normal';letter-spacing:0;white-space:pre;shape-inside:url(#g);fill:#666"><path d="m-408.105 259.854 1.33-4.74q.593-2.069.593-2.324 0-.3-.228-.383-.219-.09-.802-.09v-.502q1.522 0 3.728-.538l-1.167 3.646q1.085-1.65 1.978-2.643.893-1.003 2.105-1.003 1.358 0 1.358 1.504 0 .693-.83 3.117-.573 1.623-.692 2.07-.118.437-.118.5 0 .21.064.283.063.073.237.073.355 0 1.266-1.33l.429.236q-.811 1.377-1.486 1.887-.674.501-1.422.501-1.321 0-1.321-1.23 0-.793.81-3.254l.657-1.941q.164-.456.164-.638 0-.228-.118-.329-.11-.109-.328-.109-.62 0-1.65 1.531-1.03 1.522-1.705 3.537-.337 1.075-.61 2.169zm5.778-9.598zm-1.659 9.598z" style="font-family:Times;-inkscape-font-specification:Times;fill:#666" aria-label="n" transform="matrix(.27963 0 0 .27963 131.72 -68.93)"/></g></svg>