<svg width="210mm" height="297mm" viewBox="0 0 210 297" xmlns="http://www.w3.org/2000/svg"><defs><path id="g" d="M-407.997 242.292h72.226v68.028h-72.226z"/><path id="f" d="M-512.146 231.097h103.386v59.538h-103.386z"/><path id="e" d="M-626.343 234.07h94.787v62.963h-94.787z"/><path id="d" d="M-516.875 192.632h75.596v48.088h-75.596z"/><path id="c" d="M-612.313 187.437h68.571v44.804h-68.571z"/><path id="b" d="M-527.913 141.88h51.685v53.846h-51.685z"/><path id="a" d="M-591.066 137.057h36.574v41.619h-36.574z"/></defs><text xml:space="preserve" transform="matrix(.26458 0 0 .26458 1.743 .478)" style="font-size:18.6667px;line-height:1.25;font-family:'Helvetica Neue';-inkscape-font-specification:'Helvetica Neue, Normal';letter-spacing:0;white-space:pre;shape-inside:url(#a)"><tspan x="-591.066" y="154.618"><tspan style="font-weight:700;font-family:Baskerville;-inkscape-font-specification:'Baskerville Bold'">f</tspan></tspan></text><text xml:space="preserve" transform="matrix(.26458 0 0 .26458 -12.744 -.85)" style="font-size:18.6667px;line-height:1.25;font-family:'Helvetica Neue';-inkscape-font-specification:'Helvetica Neue, Normal';letter-spacing:0;white-space:pre;shape-inside:url(#b)"><tspan x="-527.912" y="159.44"><tspan style="font-family:'Futura PT Bold Italic';-inkscape-font-specification:'Futura PT Bold Italic, '">o</tspan></tspan></text><text xml:space="preserve" transform="matrix(.26458 0 0 .26458 12.713 -12.92)" style="font-size:18.6667px;line-height:1.25;font-family:'Helvetica Neue';-inkscape-font-specification:'Helvetica Neue, Normal';letter-spacing:0;white-space:pre;shape-inside:url(#c)"><tspan x="-612.313" y="205.17"><tspan style="font-family:'20th Century Woodcut';-inkscape-font-specification:'20th Century Woodcut'">n</tspan></tspan></text><text xml:space="preserve" transform="matrix(.26458 0 0 .26458 -7.559 -14.482)" style="font-size:18.6667px;line-height:1.25;font-family:'Helvetica Neue';-inkscape-font-specification:'Helvetica Neue, Normal';letter-spacing:0;white-space:pre;shape-inside:url(#d)"><tspan x="-516.875" y="210.194"><tspan style="font-family:lazer84;-inkscape-font-specification:lazer84">t</tspan></tspan></text><text xml:space="preserve" transform="matrix(.26458 0 0 .26458 24.773 -25.101)" style="font-size:18.6667px;line-height:1.25;font-family:'Helvetica Neue';-inkscape-font-specification:'Helvetica Neue, Normal';letter-spacing:0;white-space:pre;shape-inside:url(#e)"><tspan x="-626.344" y="251.631"><tspan style="font-weight:700;font-family:'Meslo LG L DZ for Powerline';-inkscape-font-specification:'Meslo LG L DZ for Powerline Bold'">m</tspan></tspan></text><text xml:space="preserve" transform="matrix(.24016 0 0 .24016 -14.442 -18.305)" style="font-size:18.6667px;line-height:1.25;font-family:'Helvetica Neue';-inkscape-font-specification:'Helvetica Neue, Normal';letter-spacing:0;white-space:pre;shape-inside:url(#f)"><tspan x="-512.146" y="248.659"><tspan style="font-family:Minecraft;-inkscape-font-specification:Minecraft">a</tspan></tspan></text><text xml:space="preserve" transform="translate(-21.499 -30.298) scale(.27607)" style="font-size:18.6667px;line-height:1.25;font-family:'Helvetica Neue';-inkscape-font-specification:'Helvetica Neue, Normal';letter-spacing:0;white-space:pre;shape-inside:url(#g)"><tspan x="-407.998" y="259.852"><tspan style="font-family:Times;-inkscape-font-specification:Times">n</tspan></tspan></text></svg>